<?xml version="1.0" standalone="no"?>
<!DOCTYPE svg PUBLIC "-//W3C//DTD SVG 20010904//EN"
 "http://www.w3.org/TR/2001/REC-SVG-20010904/DTD/svg10.dtd">
<svg version="1.0" xmlns="http://www.w3.org/2000/svg"
 width="200.000000pt" height="200.000000pt" viewBox="0 0 200.000000 200.000000"
 preserveAspectRatio="xMidYMid meet">
<metadata>
Created by potrace 1.14, written by Peter Selinger 2001-2017
</metadata>
<g transform="translate(0.000000,200.000000) scale(0.100000,-0.100000)"
fill="#000000" stroke="none">
<path d="M1044 1717 c-11 -6 -22 -15 -26 -20 -4 -6 -21 -4 -46 6 -42 17 -66
16 -101 -3 -23 -12 -51 -59 -51 -85 0 -15 -1 -15 -16 -1 -8 9 -23 16 -32 17
-9 0 -24 2 -34 4 -43 8 -102 -58 -97 -109 1 -12 -3 -34 -10 -50 -6 -16 -9 -38
-5 -49 5 -17 3 -19 -21 -15 -22 5 -36 -2 -66 -29 -48 -43 -55 -69 -34 -119 17
-41 18 -46 35 -194 6 -52 13 -106 15 -120 17 -116 18 -108 -14 -125 -32 -16
-47 -51 -38 -86 3 -12 2 -32 -3 -45 -8 -20 -5 -27 15 -40 23 -15 27 -15 49 -1
23 16 24 15 31 -26 4 -23 9 -64 12 -92 7 -80 22 -123 55 -161 58 -66 184 -113
313 -116 93 -2 147 9 222 43 75 33 106 66 134 141 16 42 27 58 45 62 13 4 24
11 24 16 0 6 9 10 21 10 53 0 88 50 67 95 -10 22 -39 38 -73 40 -14 1 -10 17
61 248 44 140 73 217 88 234 30 32 27 80 -7 125 -13 18 -34 54 -46 79 -26 55
-62 75 -121 65 -46 -7 -51 -1 -41 46 14 61 -32 128 -89 128 -11 0 -20 7 -20
15 0 16 -95 114 -113 117 -43 5 -67 4 -83 -5z"/>
</g>
</svg>
